<svg width="256" height="256" viewBox="0 0 256 256" fill="none" xmlns="http://www.w3.org/2000/svg">
<path d="M128.68 26.2666L127.682 25.6924L126.684 26.2666L40.0024 76.1541L39 76.731V77.8875V177.888V179.041L39.999 179.619L126.681 229.731L127.682 230.31L128.683 229.731L215.365 179.619L216.364 179.041V177.888V77.8875V76.731L215.361 76.1541L128.68 26.2666ZM131.035 35.0812L206.518 78.7809L170.352 99.5055L131.035 76.7336V35.0812ZM167.214 108.894V150.552L131.035 171.692V129.831L167.214 108.894ZM163.852 103.387L127.68 124.115L91.5088 103.387L127.68 82.4546L163.852 103.387ZM85.009 99.5045L48.8422 78.7792L124.326 35.0795V76.7326L85.009 99.5045ZM209.879 84.2897V171.501L173.7 150.77V105.226L209.879 84.2897ZM124.325 171.709L88.1458 150.773V109.119L124.325 130.056V171.709ZM81.6612 150.773L45.4783 171.71V84.287L81.6612 105.224V150.773ZM206.747 177.43L131.035 220.933V179.27L170.569 156.494L206.747 177.43ZM124.325 220.92L48.8337 177.212L84.7893 156.495L124.325 179.271V220.92Z" fill="#E1E1E1" stroke="#E7E7E7" stroke-width="4"/>
</svg>
